<svg xmlns="http://www.w3.org/2000/svg"  viewBox="0 0 80 80" width="80px" height="80px"><path fill="#8b75a1" d="M48.558,5c0.431,0,0.812,0.275,0.949,0.684L51,10.162V11H29v-0.838l1.493-4.479 C30.629,5.275,31.01,5,31.442,5H48.558 M48.558,4H31.442c-0.861,0-1.625,0.551-1.897,1.368L28,10v2h24v-2l-1.544-4.632 C50.184,4.551,49.419,4,48.558,4L48.558,4z"/><path fill="#dcd5f2" d="M16,75.5c-1.93,0-3.5-1.57-3.5-3.5V16.5h55V72c0,1.93-1.57,3.5-3.5,3.5H16z"/><path fill="#8b75a1" d="M67,17v55c0,1.654-1.346,3-3,3H16c-1.654,0-3-1.346-3-3V17H67 M68,16H12v56c0,2.209,1.791,4,4,4h48 c2.209,0,4-1.791,4-4V16L68,16z"/><path fill="#dcd5f2" d="M8.5,17.5V14c0-1.93,1.57-3.5,3.5-3.5h56c1.93,0,3.5,1.57,3.5,3.5v3.5H8.5z"/><path fill="#8b75a1" d="M68 11c1.654 0 3 1.346 3 3v3H9v-3c0-1.654 1.346-3 3-3H68M68 10H12c-2.209 0-4 1.791-4 4v4h64v-4C72 11.791 70.209 10 68 10L68 10zM46 22H47V70H46zM56 22H57V70H56zM63 22H64V70H63z"/><path fill="#8b75a1" d="M33 22H34V70H33z" transform="rotate(-180 33.5 46)"/><path fill="#8b75a1" d="M23 22H24V70H23z" transform="rotate(-180 23.5 46)"/><path fill="#8b75a1" d="M16 22H17V70H16z" transform="rotate(-180 16.5 46)"/></svg>